<?xml version="1.0" standalone="no"?>
<!DOCTYPE svg PUBLIC "-//W3C//DTD SVG 20010904//EN"
 "http://www.w3.org/TR/2001/REC-SVG-20010904/DTD/svg10.dtd">
<svg version="1.0" xmlns="http://www.w3.org/2000/svg"
 width="232.000000pt" height="232.000000pt" viewBox="0 0 232.000000 232.000000"
 preserveAspectRatio="xMidYMid meet">
<metadata>
Created by potrace 1.11, written by Peter Selinger 2001-2013
</metadata>
<g transform="translate(0.000000,232.000000) scale(0.100000,-0.100000)"
fill="#000000" stroke="none">
<path d="M1093 2230 c-2 -3 -19 -5 -36 -6 -27 0 -94 -9 -147 -19 -8 -2 -27 -8
-42 -14 -16 -6 -28 -8 -28 -5 0 4 -6 2 -13 -4 -7 -6 -24 -13 -38 -15 -13 -3
-41 -14 -62 -26 -20 -12 -53 -30 -72 -41 -19 -10 -47 -30 -62 -44 -15 -14 -39
-34 -52 -45 -13 -12 -20 -21 -16 -21 5 0 0 -8 -11 -18 -10 -10 -28 -36 -39
-58 -11 -21 -23 -41 -26 -44 -10 -8 -49 -172 -43 -181 3 -5 0 -9 -6 -9 -6 0
-8 -4 -5 -10 3 -5 8 -42 11 -82 3 -39 10 -81 17 -92 6 -12 10 -24 9 -28 -1 -4
10 -31 25 -60 26 -52 160 -198 182 -198 22 0 10 -36 -16 -52 -16 -9 -42 -30
-60 -46 -17 -17 -34 -27 -37 -24 -3 3 -6 -1 -6 -9 0 -9 -14 -25 -31 -38 -17
-13 -28 -25 -26 -28 3 -3 -5 -17 -18 -31 -13 -15 -24 -31 -24 -36 1 -5 -5 -12
-13 -17 -7 -5 -13 -12 -14 -16 0 -4 -10 -29 -22 -54 -32 -69 -43 -132 -41
-233 2 -81 7 -114 26 -166 3 -8 7 -22 9 -30 2 -8 8 -16 13 -18 6 -2 11 -12 11
-22 0 -9 7 -23 15 -30 8 -7 15 -17 15 -23 0 -11 77 -87 89 -87 4 0 16 -8 27
-17 30 -27 80 -53 88 -46 3 3 6 2 6 -4 0 -9 20 -18 45 -22 3 0 19 -8 36 -17
17 -8 37 -13 45 -10 8 3 14 2 14 -3 0 -4 6 -8 13 -8 6 0 28 -4 47 -8 19 -4 45
-8 58 -8 12 -1 22 -4 22 -7 0 -4 24 -7 53 -8 219 -6 287 -6 287 -2 0 3 28 7
63 8 91 5 107 6 107 13 0 3 14 6 30 7 52 3 60 5 60 15 0 5 7 7 15 3 8 -3 21 1
29 9 11 11 16 12 19 2 4 -9 6 -9 6 1 1 6 8 12 17 12 20 0 118 47 171 82 23 15
45 28 49 28 10 0 44 41 44 53 0 6 3 7 6 4 10 -10 50 40 82 100 15 29 30 53 34
53 4 0 5 7 2 15 -4 8 -2 15 3 15 5 0 10 6 10 13 1 6 7 39 13 72 13 64 8 237
-7 258 -5 7 -15 31 -23 55 -7 23 -17 42 -22 42 -4 0 -8 6 -8 14 0 20 -100 126
-152 162 -24 16 -44 32 -46 37 -2 4 -10 7 -17 7 -7 0 -27 11 -43 25 -16 13
-32 22 -36 18 -3 -3 -6 -4 -6 0 0 3 41 47 90 98 50 50 90 97 90 104 0 7 7 18
15 25 8 6 14 15 13 18 -2 20 3 32 12 27 6 -3 10 3 10 14 0 11 5 23 11 26 6 4
8 13 5 21 -3 8 -1 14 4 14 6 0 10 9 10 21 0 11 5 29 10 39 7 13 7 21 0 25 -8
5 -7 11 1 21 11 13 9 78 -5 161 -15 91 -78 186 -174 264 -30 26 -141 76 -197
91 -28 7 -52 15 -55 18 -3 3 -14 6 -25 6 -24 2 -80 12 -80 14 0 7 -284 17
-292 10z m182 -321 c0 -1 9 -3 20 -4 61 -7 131 -59 162 -120 27 -51 22 -150
-11 -214 -9 -17 -14 -31 -11 -31 3 0 -3 -9 -12 -19 -53 -57 -73 -83 -73 -93 0
-6 -3 -8 -6 -5 -4 3 -15 -5 -26 -18 -11 -14 -27 -25 -36 -25 -16 0 -196 85
-220 105 -42 33 -112 104 -112 113 0 6 -4 12 -10 14 -5 2 -11 12 -13 23 -1 11
-5 25 -8 30 -16 30 10 145 34 145 6 0 8 3 4 6 -15 15 80 78 137 89 10 3 20 6
22 7 3 3 159 1 159 -3z m-150 -929 c137 -63 225 -111 225 -122 0 -4 5 -8 11
-8 20 0 79 -68 98 -113 22 -50 22 -136 1 -163 -13 -16 -13 -17 0 -9 8 5 2 -9
-15 -31 -38 -50 -51 -64 -63 -64 -6 0 -12 -5 -14 -12 -2 -6 -15 -13 -28 -15
-13 -2 -27 -7 -30 -11 -3 -4 -14 -8 -25 -9 -24 -3 -60 -11 -60 -13 0 -6 -168
-3 -172 3 -3 5 -12 6 -20 3 -8 -3 -23 -1 -33 4 -11 6 -30 11 -44 12 -15 1 -26
5 -26 9 0 4 -10 10 -22 13 -34 9 -83 57 -108 104 -26 49 -35 139 -18 179 6 16
12 34 14 42 1 8 6 17 11 20 4 3 9 13 11 21 2 8 8 17 13 18 5 2 9 10 9 18 0 8
5 14 10 14 6 0 10 7 10 16 0 8 5 12 10 9 6 -3 10 -3 10 2 0 10 60 79 60 69 0
-4 6 -1 14 6 8 7 12 16 9 21 -2 4 3 7 12 7 9 0 14 4 11 9 -9 13 15 19 44 11
14 -4 57 -22 95 -40z"/>
</g>
</svg>
